<svg width="554" height="109" viewBox="0 0 554 109" fill="none" xmlns="http://www.w3.org/2000/svg">
<path d="M66.6719 36.8906L67.3281 36.3047C67.9688 37.0391 68.6172 37.4062 69.2734 37.4062C69.8672 37.4062 70.3203 37.1641 70.6328 36.6797C70.9453 36.1797 71.2422 35.2734 71.5234 33.9609L72.9062 27.5391C73.4062 25.3047 74.5234 23.6953 76.2578 22.7109C77.9922 21.7109 80.4219 21.1172 83.5469 20.9297L74.8281 10.5234C72.6719 8.00781 70.3438 6.48438 67.8438 5.95312V5.01562C69 5.10938 70.5078 5.15625 72.3672 5.15625C74.7422 5.15625 77.1016 5.10938 79.4453 5.01562V5.95312C78.3359 5.98437 77.4688 6.22656 76.8438 6.67969C76.2344 7.11719 75.9297 7.73438 75.9297 8.53125C75.9297 9.73438 76.6719 11.2188 78.1562 12.9844L80.9688 16.4062C82.2969 17.9375 83.4766 19.0469 84.5078 19.7344C85.5391 20.4219 86.6953 20.7969 87.9766 20.8594V10.1016C87.9766 9.17969 87.9375 8.47656 87.8594 7.99219C87.7812 7.50781 87.6016 7.10938 87.3203 6.79688C87.0391 6.48438 86.6875 6.28125 86.2656 6.1875C85.8438 6.07812 85.2188 6.00781 84.3906 5.97656V5.01562C86.1094 5.10938 88.5234 5.15625 91.6328 5.15625C95.0547 5.15625 97.5859 5.10938 99.2266 5.01562V5.97656C98.4141 6.00781 97.7891 6.07812 97.3516 6.1875C96.9297 6.28125 96.5703 6.48438 96.2734 6.79688C95.9922 7.10938 95.8125 7.51562 95.7344 8.01562C95.6562 8.5 95.6172 9.19531 95.6172 10.1016V20.8594C96.8828 20.7969 98.0312 20.4297 99.0625 19.7578C100.094 19.0703 101.289 17.9531 102.648 16.4062L105.461 12.9844C106.93 11.25 107.664 9.76562 107.664 8.53125C107.664 7.73438 107.352 7.11719 106.727 6.67969C106.117 6.22656 105.258 5.98437 104.148 5.95312V5.01562C106.492 5.10938 108.852 5.15625 111.227 5.15625C113.086 5.15625 114.602 5.10938 115.773 5.01562V5.95312C113.258 6.48438 110.93 8.00781 108.789 10.5234L100.047 20.9297C103.172 21.1172 105.602 21.7109 107.336 22.7109C109.07 23.6953 110.188 25.3047 110.688 27.5391L112.094 33.9609C112.359 35.2578 112.648 36.1562 112.961 36.6562C113.273 37.1562 113.734 37.4062 114.344 37.4062C114.984 37.4062 115.625 37.0391 116.266 36.3047L116.922 36.8906C116.078 37.8594 115.148 38.5625 114.133 39C113.133 39.4531 111.938 39.6797 110.547 39.6797C108.703 39.6797 107.25 39.2969 106.188 38.5312C105.125 37.75 104.422 36.3984 104.078 34.4766L102.789 27.1641C102.398 25.1328 101.758 23.7109 100.867 22.8984C99.9922 22.0859 98.4609 21.6797 96.2734 21.6797H95.6172V33.9141C95.6172 34.8359 95.6562 35.5391 95.7344 36.0234C95.8125 36.5078 95.9922 36.9062 96.2734 37.2188C96.5703 37.5312 96.9297 37.7422 97.3516 37.8516C97.7734 37.9453 98.3984 38.0078 99.2266 38.0391V39C97.5859 38.9062 95.0547 38.8594 91.6328 38.8594C88.5078 38.8594 86.0938 38.9062 84.3906 39V38.0391C85.2031 38.0078 85.8203 37.9453 86.2422 37.8516C86.6641 37.7422 87.0156 37.5312 87.2969 37.2188C87.5938 36.9062 87.7812 36.5078 87.8594 36.0234C87.9375 35.5234 87.9766 34.8203 87.9766 33.9141V21.6797H87.3203C86.1797 21.6797 85.2344 21.7812 84.4844 21.9844C83.7344 22.1875 83.1172 22.5312 82.6328 23.0156C82.1484 23.4844 81.7734 24.0391 81.5078 24.6797C81.2422 25.3203 81.0156 26.1484 80.8281 27.1641L79.5391 34.4766C79.1953 36.3984 78.4922 37.75 77.4297 38.5312C76.3672 39.2969 74.9062 39.6797 73.0469 39.6797C71.6562 39.6797 70.4609 39.4531 69.4609 39C68.4609 38.5625 67.5312 37.8594 66.6719 36.8906ZM117.695 39V37.9922C118.836 37.9922 119.633 37.75 120.086 37.2656C120.539 36.7656 120.766 35.8594 120.766 34.5469V18.6797C120.766 17.3516 120.539 16.4453 120.086 15.9609C119.633 15.4609 118.836 15.2109 117.695 15.2109V14.2031C121.352 14.3438 123.461 14.4141 124.023 14.4141C124.664 14.4141 126.742 14.3438 130.258 14.2031V15.2109C129.289 15.2109 128.617 15.4609 128.242 15.9609C127.867 16.4453 127.68 17.3516 127.68 18.6797V33.6328L136.844 18.1406C136.797 17.0312 136.578 16.2656 136.188 15.8438C135.797 15.4219 135.148 15.2109 134.242 15.2109V14.2031C137.617 14.3438 139.602 14.4141 140.195 14.4141C140.758 14.4141 142.969 14.3438 146.828 14.2031V15.2109C145.688 15.2109 144.891 15.4609 144.438 15.9609C143.984 16.4453 143.758 17.3516 143.758 18.6797V34.5469C143.758 35.8594 143.984 36.7656 144.438 37.2656C144.891 37.75 145.688 37.9922 146.828 37.9922V39C143.578 38.875 141.461 38.8125 140.477 38.8125C139.508 38.8125 137.43 38.875 134.242 39V37.9922C135.211 37.9922 135.883 37.75 136.258 37.2656C136.648 36.7656 136.844 35.8594 136.844 34.5469V19.9453L127.703 35.4609C127.781 36.4141 128.016 37.0781 128.406 37.4531C128.797 37.8125 129.414 37.9922 130.258 37.9922V39C127.258 38.875 125.273 38.8125 124.305 38.8125C123.273 38.8125 121.07 38.875 117.695 39ZM148.094 35.3203C148.094 34.1172 148.445 33.1719 149.148 32.4844C149.852 31.7812 150.766 31.4297 151.891 31.4297C152.969 31.4297 153.812 31.7578 154.422 32.4141C155.047 33.0547 155.359 33.875 155.359 34.875C155.359 36.625 154.344 37.9219 152.312 38.7656C152.422 38.8125 152.633 38.8359 152.945 38.8359C154.711 38.8359 156.188 37.3672 157.375 34.4297C158.625 31.2891 159.516 26.0391 160.047 18.6797C160.047 18.6172 160.047 18.5391 160.047 18.4453C160.062 18.3359 160.07 18.2578 160.07 18.2109C160.07 17.1016 159.758 16.3281 159.133 15.8906C158.523 15.4375 157.562 15.2109 156.25 15.2109V14.2031C157.328 14.2969 158.344 14.3438 159.297 14.3438C159.734 14.3438 160.406 14.3359 161.312 14.3203C162.234 14.3047 163.047 14.2969 163.75 14.2969C164.688 14.2969 165.781 14.3203 167.031 14.3672C168.297 14.3984 169.266 14.4141 169.938 14.4141C170.422 14.4141 172.383 14.3438 175.82 14.2031V15.2109C174.773 15.2109 174.047 15.4609 173.641 15.9609C173.234 16.4453 173.031 17.3516 173.031 18.6797V34.5469C173.031 35.8594 173.234 36.7656 173.641 37.2656C174.062 37.75 174.789 37.9922 175.82 37.9922V39C172.758 38.875 170.703 38.8125 169.656 38.8125C168.688 38.8125 166.359 38.875 162.672 39V37.9922C163.891 37.9922 164.773 37.7422 165.32 37.2422C165.867 36.7422 166.141 35.8438 166.141 34.5469V18.6797C166.141 17.3516 165.945 16.4453 165.555 15.9609C165.18 15.4609 164.508 15.2109 163.539 15.2109H163.117C162.289 15.2109 161.758 15.4297 161.523 15.8672C161.305 16.3047 161.133 17.2422 161.008 18.6797C160.773 21.3203 160.578 23.3438 160.422 24.75C160.266 26.1406 159.992 27.8047 159.602 29.7422C159.227 31.6797 158.773 33.3203 158.242 34.6641C156.883 38.0078 155.031 39.6797 152.688 39.6797C151.484 39.6797 150.414 39.3125 149.477 38.5781C148.555 37.8281 148.094 36.7422 148.094 35.3203ZM178.984 26.6016C178.984 24.2891 179.266 22.2812 179.828 20.5781C180.406 18.8594 181.227 17.4922 182.289 16.4766C183.352 15.4609 184.578 14.7109 185.969 14.2266C187.375 13.7422 188.961 13.5 190.727 13.5C192.508 13.5 194.094 13.7422 195.484 14.2266C196.891 14.7109 198.125 15.4609 199.188 16.4766C200.25 17.4922 201.062 18.8594 201.625 20.5781C202.203 22.2812 202.492 24.2891 202.492 26.6016C202.492 28.9297 202.203 30.9453 201.625 32.6484C201.062 34.3516 200.25 35.7109 199.188 36.7266C198.125 37.7422 196.891 38.4922 195.484 38.9766C194.094 39.4453 192.508 39.6797 190.727 39.6797C188.945 39.6797 187.359 39.4453 185.969 38.9766C184.578 38.4922 183.352 37.7422 182.289 36.7266C181.227 35.7109 180.406 34.3516 179.828 32.6484C179.266 30.9453 178.984 28.9297 178.984 26.6016ZM187.445 17.4609C186.633 19.4453 186.227 22.4922 186.227 26.6016C186.227 30.7109 186.633 33.7578 187.445 35.7422C188.258 37.7266 189.352 38.7188 190.727 38.7188C192.117 38.7188 193.219 37.7266 194.031 35.7422C194.844 33.7578 195.25 30.7109 195.25 26.6016C195.25 22.4922 194.844 19.4453 194.031 17.4609C193.219 15.4609 192.117 14.4609 190.727 14.4609C189.352 14.4609 188.258 15.4609 187.445 17.4609ZM205.492 39V37.9922C206.633 37.9922 207.43 37.75 207.883 37.2656C208.336 36.7656 208.562 35.8594 208.562 34.5469V18.6797C208.562 17.3516 208.336 16.4453 207.883 15.9609C207.43 15.4609 206.633 15.2109 205.492 15.2109V14.2031C209.148 14.3438 211.258 14.4141 211.82 14.4141C212.461 14.4141 214.539 14.3438 218.055 14.2031V15.2109C217.086 15.2109 216.414 15.4609 216.039 15.9609C215.664 16.4453 215.477 17.3516 215.477 18.6797V33.6328L224.641 18.1406C224.594 17.0312 224.375 16.2656 223.984 15.8438C223.594 15.4219 222.945 15.2109 222.039 15.2109V14.2031C225.414 14.3438 227.398 14.4141 227.992 14.4141C228.555 14.4141 230.766 14.3438 234.625 14.2031V15.2109C233.484 15.2109 232.688 15.4609 232.234 15.9609C231.781 16.4453 231.555 17.3516 231.555 18.6797V34.5469C231.555 35.8594 231.781 36.7656 232.234 37.2656C232.688 37.75 233.484 37.9922 234.625 37.9922V39C231.375 38.875 229.258 38.8125 228.273 38.8125C227.305 38.8125 225.227 38.875 222.039 39V37.9922C223.008 37.9922 223.68 37.75 224.055 37.2656C224.445 36.7656 224.641 35.8594 224.641 34.5469V19.9453L215.5 35.4609C215.578 36.4141 215.812 37.0781 216.203 37.4531C216.594 37.8125 217.211 37.9922 218.055 37.9922V39C215.055 38.875 213.07 38.8125 212.102 38.8125C211.07 38.8125 208.867 38.875 205.492 39ZM209.992 4.28906C209.992 3.25781 210.312 2.41406 210.953 1.75781C211.609 1.10156 212.461 0.773438 213.508 0.773438C214.523 0.773438 215.367 1.10156 216.039 1.75781C216.727 2.41406 217.07 3.26562 217.07 4.3125C217.07 5.14062 216.828 5.85156 216.344 6.44531C215.859 7.02344 215.219 7.4375 214.422 7.6875C215.844 8.4375 217.711 8.8125 220.023 8.8125C222.352 8.8125 224.211 8.42969 225.602 7.66406C224.805 7.42969 224.172 7.02344 223.703 6.44531C223.25 5.85156 223.023 5.14062 223.023 4.3125C223.023 3.26562 223.359 2.41406 224.031 1.75781C224.703 1.10156 225.555 0.773438 226.586 0.773438C227.617 0.773438 228.461 1.10156 229.117 1.75781C229.773 2.41406 230.102 3.25781 230.102 4.28906C230.102 5.07031 229.859 5.78906 229.375 6.44531C228.906 7.10156 228.289 7.64844 227.523 8.08594C225.617 9.21094 223.117 9.77344 220.023 9.77344C216.914 9.77344 214.406 9.21094 212.5 8.08594C211.75 7.64844 211.141 7.10156 210.672 6.44531C210.219 5.78906 209.992 5.07031 209.992 4.28906ZM248.148 39V37.9922C249.289 37.9922 250.086 37.75 250.539 37.2656C250.992 36.7656 251.219 35.8594 251.219 34.5469V18.6797C251.219 17.3516 250.992 16.4453 250.539 15.9609C250.086 15.4609 249.289 15.2109 248.148 15.2109V14.2031C251.945 14.3438 254.156 14.4141 254.781 14.4141C255.406 14.4141 257.477 14.3438 260.992 14.2031V15.2109C259.93 15.2109 259.188 15.4609 258.766 15.9609C258.344 16.4453 258.133 17.3516 258.133 18.6797V25.8281C259.195 25.7656 260.07 25.6094 260.758 25.3594C261.461 25.1094 262.039 24.7188 262.492 24.1875C262.945 23.6562 263.297 23.0938 263.547 22.5C263.797 21.8906 264.07 21.0547 264.367 19.9922C264.555 19.3359 264.703 18.8203 264.812 18.4453C264.922 18.0547 265.078 17.6016 265.281 17.0859C265.484 16.5547 265.672 16.1406 265.844 15.8438C266.031 15.5469 266.266 15.2266 266.547 14.8828C266.844 14.5391 267.156 14.2812 267.484 14.1094C267.828 13.9375 268.227 13.7969 268.68 13.6875C269.148 13.5625 269.664 13.5 270.227 13.5C271.742 13.5 272.875 13.8516 273.625 14.5547C274.375 15.2578 274.75 16.1797 274.75 17.3203C274.75 18.4453 274.414 19.3359 273.742 19.9922C273.086 20.6484 272.227 20.9766 271.164 20.9766C270.133 20.9766 269.219 20.6719 268.422 20.0625C267.641 19.4531 267.25 18.5781 267.25 17.4375C267.25 16.2969 267.812 15.4219 268.938 14.8125C267.922 14.9375 267.195 15.3594 266.758 16.0781C266.336 16.7812 265.859 18.0781 265.328 19.9688C265.234 20.3281 265.156 20.6094 265.094 20.8125C264.672 22.1719 264.234 23.2188 263.781 23.9531C263.328 24.6875 262.648 25.2578 261.742 25.6641C262.336 25.6328 262.766 25.6172 263.031 25.6172C266.359 25.6172 268.727 26.5547 270.133 28.4297C270.523 28.9297 270.867 29.5391 271.164 30.2578C271.461 30.9766 271.773 31.8516 272.102 32.8828C272.445 33.8984 272.742 34.7188 272.992 35.3438C273.367 36.25 273.742 36.8984 274.117 37.2891C274.508 37.6641 275.078 37.8984 275.828 37.9922V39C274.531 39.2031 273.391 39.3047 272.406 39.3047C270.516 39.3047 269.039 38.9375 267.977 38.2031C266.914 37.4688 266.18 36.2656 265.773 34.5938L265.633 34.125C265.555 33.7969 265.5 33.5781 265.469 33.4688C265.438 33.3594 265.375 33.1328 265.281 32.7891C265.188 32.4453 265.102 32.1875 265.023 32.0156C264.961 31.8281 264.875 31.5781 264.766 31.2656C264.656 30.9375 264.547 30.6641 264.438 30.4453C264.344 30.2266 264.234 29.9844 264.109 29.7188C263.984 29.4531 263.852 29.2109 263.711 28.9922C263.57 28.7734 263.43 28.5703 263.289 28.3828C262.367 27.2266 260.898 26.6484 258.883 26.6484C258.805 26.6484 258.68 26.6562 258.508 26.6719C258.352 26.6719 258.227 26.6719 258.133 26.6719V34.5469C258.133 35.8594 258.344 36.7656 258.766 37.2656C259.188 37.75 259.93 37.9922 260.992 37.9922V39C257.742 38.875 255.594 38.8125 254.547 38.8125C253.531 38.8125 251.398 38.875 248.148 39ZM277.797 26.6016C277.797 24.2891 278.078 22.2812 278.641 20.5781C279.219 18.8594 280.039 17.4922 281.102 16.4766C282.164 15.4609 283.391 14.7109 284.781 14.2266C286.188 13.7422 287.773 13.5 289.539 13.5C291.32 13.5 292.906 13.7422 294.297 14.2266C295.703 14.7109 296.938 15.4609 298 16.4766C299.062 17.4922 299.875 18.8594 300.438 20.5781C301.016 22.2812 301.305 24.2891 301.305 26.6016C301.305 28.9297 301.016 30.9453 300.438 32.6484C299.875 34.3516 299.062 35.7109 298 36.7266C296.938 37.7422 295.703 38.4922 294.297 38.9766C292.906 39.4453 291.32 39.6797 289.539 39.6797C287.758 39.6797 286.172 39.4453 284.781 38.9766C283.391 38.4922 282.164 37.7422 281.102 36.7266C280.039 35.7109 279.219 34.3516 278.641 32.6484C278.078 30.9453 277.797 28.9297 277.797 26.6016ZM286.258 17.4609C285.445 19.4453 285.039 22.4922 285.039 26.6016C285.039 30.7109 285.445 33.7578 286.258 35.7422C287.07 37.7266 288.164 38.7188 289.539 38.7188C290.93 38.7188 292.031 37.7266 292.844 35.7422C293.656 33.7578 294.062 30.7109 294.062 26.6016C294.062 22.4922 293.656 19.4453 292.844 17.4609C292.031 15.4609 290.93 14.4609 289.539 14.4609C288.164 14.4609 287.07 15.4609 286.258 17.4609ZM304.188 39V38.0391C305.5 37.9766 306.375 37.4609 306.812 36.4922C307.266 35.5078 307.492 33.9766 307.492 31.8984V19.2422C307.492 18.0391 307.406 17.1719 307.234 16.6406C307.062 16.0938 306.758 15.7188 306.32 15.5156C305.898 15.2969 305.188 15.1641 304.188 15.1172V14.1562C305.281 14.2656 306.578 14.3203 308.078 14.3203C310.219 14.3203 312.359 14.2656 314.5 14.1562L321.039 30.5391L327.672 14.3203C328.453 14.3516 329.75 14.3672 331.562 14.3672C332.531 14.3672 334.492 14.3125 337.445 14.2031V15.1875C336.289 15.2188 335.516 15.4766 335.125 15.9609C334.75 16.4297 334.562 17.4141 334.562 18.9141V34.2891C334.562 35.7734 334.75 36.7578 335.125 37.2422C335.516 37.7266 336.289 37.9844 337.445 38.0156V39C335.398 38.8906 333.344 38.8359 331.281 38.8359C328.906 38.8359 326.641 38.8906 324.484 39V38.0156C325.75 37.9844 326.594 37.7266 327.016 37.2422C327.453 36.7578 327.672 35.7734 327.672 34.2891V16.9453L318.508 39.2344H317.734L308.547 17.2266V32.1797C308.547 34.2109 308.852 35.6797 309.461 36.5859C310.07 37.4922 311.258 37.9766 313.023 38.0391V39C311.68 38.9062 310.031 38.8594 308.078 38.8594C306.422 38.8594 305.125 38.9062 304.188 39ZM339.977 39V37.9922C341.117 37.9922 341.914 37.75 342.367 37.2656C342.82 36.7656 343.047 35.8594 343.047 34.5469V18.6797C343.047 17.3516 342.82 16.4453 342.367 15.9609C341.914 15.4609 341.117 15.2109 339.977 15.2109V14.2031C343.633 14.3438 345.742 14.4141 346.305 14.4141C347.086 14.4141 348.305 14.3828 349.961 14.3203C351.633 14.2422 353.008 14.2031 354.086 14.2031C355.18 14.2031 356.5 14.2422 358.047 14.3203C359.594 14.3828 360.781 14.4141 361.609 14.4141C362.156 14.4141 364.367 14.3438 368.242 14.2031V15.2109C367.102 15.2109 366.305 15.4609 365.852 15.9609C365.398 16.4453 365.172 17.3516 365.172 18.6797V34.5469C365.172 35.8594 365.398 36.7656 365.852 37.2656C366.305 37.75 367.102 37.9922 368.242 37.9922V39C364.992 38.875 362.875 38.8125 361.891 38.8125C360.922 38.8125 358.844 38.875 355.656 39V37.9922C356.625 37.9922 357.297 37.75 357.672 37.2656C358.062 36.7656 358.258 35.8594 358.258 34.5469V18.6797C358.258 17.3516 358.062 16.4453 357.672 15.9609C357.297 15.4609 356.625 15.2109 355.656 15.2109H352.539C351.57 15.2109 350.898 15.4609 350.523 15.9609C350.148 16.4453 349.961 17.3516 349.961 18.6797V34.5469C349.961 35.8594 350.148 36.7656 350.523 37.2656C350.898 37.75 351.57 37.9922 352.539 37.9922V39C349.539 38.875 347.555 38.8125 346.586 38.8125C345.555 38.8125 343.352 38.875 339.977 39ZM369.531 35.3203C369.531 34.1172 369.883 33.1719 370.586 32.4844C371.289 31.7812 372.203 31.4297 373.328 31.4297C374.406 31.4297 375.25 31.7578 375.859 32.4141C376.484 33.0547 376.797 33.875 376.797 34.875C376.797 36.625 375.781 37.9219 373.75 38.7656C373.859 38.8125 374.07 38.8359 374.383 38.8359C376.148 38.8359 377.625 37.3672 378.812 34.4297C380.062 31.2891 380.953 26.0391 381.484 18.6797C381.484 18.6172 381.484 18.5391 381.484 18.4453C381.5 18.3359 381.508 18.2578 381.508 18.2109C381.508 17.1016 381.195 16.3281 380.57 15.8906C379.961 15.4375 379 15.2109 377.688 15.2109V14.2031C378.766 14.2969 379.781 14.3438 380.734 14.3438C381.172 14.3438 381.844 14.3359 382.75 14.3203C383.672 14.3047 384.484 14.2969 385.188 14.2969C386.125 14.2969 387.219 14.3203 388.469 14.3672C389.734 14.3984 390.703 14.4141 391.375 14.4141C391.859 14.4141 393.82 14.3438 397.258 14.2031V15.2109C396.211 15.2109 395.484 15.4609 395.078 15.9609C394.672 16.4453 394.469 17.3516 394.469 18.6797V34.5469C394.469 35.8594 394.672 36.7656 395.078 37.2656C395.5 37.75 396.227 37.9922 397.258 37.9922V39C394.195 38.875 392.141 38.8125 391.094 38.8125C390.125 38.8125 387.797 38.875 384.109 39V37.9922C385.328 37.9922 386.211 37.7422 386.758 37.2422C387.305 36.7422 387.578 35.8438 387.578 34.5469V18.6797C387.578 17.3516 387.383 16.4453 386.992 15.9609C386.617 15.4609 385.945 15.2109 384.977 15.2109H384.555C383.727 15.2109 383.195 15.4297 382.961 15.8672C382.742 16.3047 382.57 17.2422 382.445 18.6797C382.211 21.3203 382.016 23.3438 381.859 24.75C381.703 26.1406 381.43 27.8047 381.039 29.7422C380.664 31.6797 380.211 33.3203 379.68 34.6641C378.32 38.0078 376.469 39.6797 374.125 39.6797C372.922 39.6797 371.852 39.3125 370.914 38.5781C369.992 37.8281 369.531 36.7422 369.531 35.3203ZM400.398 26.8359C400.398 22.5234 401.469 19.2266 403.609 16.9453C405.766 14.6484 408.609 13.5 412.141 13.5C418.156 13.5 421.164 17.0547 421.164 24.1641H407.734C407.672 24.7891 407.641 25.5469 407.641 26.4375C407.641 28.0469 407.82 29.4688 408.18 30.7031C408.539 31.9219 409.023 32.8906 409.633 33.6094C410.242 34.3125 410.906 34.8438 411.625 35.2031C412.344 35.5469 413.102 35.7188 413.898 35.7188C416.539 35.7188 418.641 34.4375 420.203 31.875L421.07 32.2031C420.773 33.1562 420.352 34.0625 419.805 34.9219C419.273 35.7656 418.617 36.5547 417.836 37.2891C417.07 38.0234 416.133 38.6016 415.023 39.0234C413.93 39.4609 412.742 39.6797 411.461 39.6797C408.086 39.6797 405.398 38.6016 403.398 36.4453C401.398 34.2734 400.398 31.0703 400.398 26.8359ZM407.594 23.25H415.117C415.164 20.75 414.906 18.6719 414.344 17.0156C413.797 15.3594 412.969 14.5312 411.859 14.5312C410.719 14.5312 409.766 15.2422 409 16.6641C408.25 18.0859 407.781 20.2812 407.594 23.25ZM424.023 39V37.9922C425.164 37.9922 425.961 37.75 426.414 37.2656C426.867 36.7656 427.094 35.8594 427.094 34.5469V18.6797C427.094 17.3516 426.867 16.4453 426.414 15.9609C425.961 15.4609 425.164 15.2109 424.023 15.2109V14.2031C427.82 14.3438 430.031 14.4141 430.656 14.4141C431.281 14.4141 433.352 14.3438 436.867 14.2031V15.2109C435.805 15.2109 435.062 15.4609 434.641 15.9609C434.219 16.4453 434.008 17.3516 434.008 18.6797V25.8281C435.07 25.7656 435.945 25.6094 436.633 25.3594C437.336 25.1094 437.914 24.7188 438.367 24.1875C438.82 23.6562 439.172 23.0938 439.422 22.5C439.672 21.8906 439.945 21.0547 440.242 19.9922C440.43 19.3359 440.578 18.8203 440.688 18.4453C440.797 18.0547 440.953 17.6016 441.156 17.0859C441.359 16.5547 441.547 16.1406 441.719 15.8438C441.906 15.5469 442.141 15.2266 442.422 14.8828C442.719 14.5391 443.031 14.2812 443.359 14.1094C443.703 13.9375 444.102 13.7969 444.555 13.6875C445.023 13.5625 445.539 13.5 446.102 13.5C447.617 13.5 448.75 13.8516 449.5 14.5547C450.25 15.2578 450.625 16.1797 450.625 17.3203C450.625 18.4453 450.289 19.3359 449.617 19.9922C448.961 20.6484 448.102 20.9766 447.039 20.9766C446.008 20.9766 445.094 20.6719 444.297 20.0625C443.516 19.4531 443.125 18.5781 443.125 17.4375C443.125 16.2969 443.688 15.4219 444.812 14.8125C443.797 14.9375 443.07 15.3594 442.633 16.0781C442.211 16.7812 441.734 18.0781 441.203 19.9688C441.109 20.3281 441.031 20.6094 440.969 20.8125C440.547 22.1719 440.109 23.2188 439.656 23.9531C439.203 24.6875 438.523 25.2578 437.617 25.6641C438.211 25.6328 438.641 25.6172 438.906 25.6172C442.234 25.6172 444.602 26.5547 446.008 28.4297C446.398 28.9297 446.742 29.5391 447.039 30.2578C447.336 30.9766 447.648 31.8516 447.977 32.8828C448.32 33.8984 448.617 34.7188 448.867 35.3438C449.242 36.25 449.617 36.8984 449.992 37.2891C450.383 37.6641 450.953 37.8984 451.703 37.9922V39C450.406 39.2031 449.266 39.3047 448.281 39.3047C446.391 39.3047 444.914 38.9375 443.852 38.2031C442.789 37.4688 442.055 36.2656 441.648 34.5938L441.508 34.125C441.43 33.7969 441.375 33.5781 441.344 33.4688C441.312 33.3594 441.25 33.1328 441.156 32.7891C441.062 32.4453 440.977 32.1875 440.898 32.0156C440.836 31.8281 440.75 31.5781 440.641 31.2656C440.531 30.9375 440.422 30.6641 440.312 30.4453C440.219 30.2266 440.109 29.9844 439.984 29.7188C439.859 29.4531 439.727 29.2109 439.586 28.9922C439.445 28.7734 439.305 28.5703 439.164 28.3828C438.242 27.2266 436.773 26.6484 434.758 26.6484C434.68 26.6484 434.555 26.6562 434.383 26.6719C434.227 26.6719 434.102 26.6719 434.008 26.6719V34.5469C434.008 35.8594 434.219 36.7656 434.641 37.2656C435.062 37.75 435.805 37.9922 436.867 37.9922V39C433.617 38.875 431.469 38.8125 430.422 38.8125C429.406 38.8125 427.273 38.875 424.023 39ZM453.625 26.7188C453.625 22.5156 454.719 19.2656 456.906 16.9688C459.109 14.6562 461.969 13.5 465.484 13.5C467.938 13.5 469.945 13.9922 471.508 14.9766C472.336 15.4766 472.984 16.1172 473.453 16.8984C473.922 17.6641 474.156 18.5156 474.156 19.4531C474.156 20.5938 473.797 21.5234 473.078 22.2422C472.375 22.9609 471.469 23.3203 470.359 23.3203C469.219 23.3203 468.312 23 467.641 22.3594C466.984 21.7031 466.656 20.8359 466.656 19.7578C466.656 18.7891 466.953 17.9531 467.547 17.25C468.156 16.5469 468.914 16.0703 469.82 15.8203C469.57 15.4922 469.18 15.2188 468.648 15C468.133 14.7812 467.562 14.6719 466.938 14.6719C465.641 14.6719 464.531 15.1719 463.609 16.1719C462.688 17.1719 462 18.5156 461.547 20.2031C461.094 21.8906 460.867 23.8359 460.867 26.0391C460.867 27.8203 461.047 29.3672 461.406 30.6797C461.766 31.9766 462.25 32.9844 462.859 33.7031C463.484 34.4062 464.156 34.9219 464.875 35.25C465.594 35.5625 466.375 35.7188 467.219 35.7188C469.828 35.7188 471.922 34.4141 473.5 31.8047L474.344 32.1094C474.047 33.0625 473.641 33.9688 473.125 34.8281C472.625 35.6719 471.992 36.4688 471.227 37.2188C470.477 37.9688 469.547 38.5625 468.438 39C467.328 39.4531 466.117 39.6797 464.805 39.6797C463.211 39.6797 461.742 39.4219 460.398 38.9062C459.07 38.3906 457.891 37.6172 456.859 36.5859C455.844 35.5547 455.047 34.2031 454.469 32.5312C453.906 30.8438 453.625 28.9062 453.625 26.7188ZM0.320312 100V98.9922C1.46094 98.9922 2.25781 98.75 2.71094 98.2656C3.16406 97.7656 3.39062 96.8594 3.39062 95.5469V79.6797C3.39062 78.3516 3.16406 77.4453 2.71094 76.9609C2.25781 76.4609 1.46094 76.2109 0.320312 76.2109V75.2031C3.97656 75.3438 6.07031 75.4141 6.60156 75.4141C7.63281 75.4141 9.01562 75.3828 10.75 75.3203C12.4844 75.2422 13.6406 75.2031 14.2188 75.2031C20.6875 75.2031 23.9219 77.0938 23.9219 80.875C23.9219 82.4688 23.1953 83.8359 21.7422 84.9766C20.3047 86.1016 18.1953 86.8125 15.4141 87.1094C18.8672 87.2188 21.3359 87.7891 22.8203 88.8203C24.3203 89.8516 25.0703 91.3672 25.0703 93.3672C25.0703 97.7891 21.6875 100 14.9219 100C14.3281 100 13.1094 99.9688 11.2656 99.9062C9.4375 99.8438 7.98438 99.8125 6.90625 99.8125C5.89062 99.8125 3.69531 99.875 0.320312 100ZM10.3047 95.5469C10.3047 96.9219 10.4844 97.8438 10.8438 98.3125C11.2188 98.7656 11.9062 98.9922 12.9062 98.9922C16.2656 98.9922 17.9453 97.1328 17.9453 93.4141C17.9453 91.4453 17.4844 90.0312 16.5625 89.1719C15.6406 88.3125 14.2266 87.8828 12.3203 87.8828H10.3047V95.5469ZM10.3047 86.9922H11.0547C13.3672 86.9453 14.9219 86.4922 15.7188 85.6328C16.5156 84.7734 16.9141 83.375 16.9141 81.4375C16.9141 80.6562 16.8594 79.9766 16.75 79.3984C16.6406 78.8203 16.4375 78.2812 16.1406 77.7812C15.8594 77.2656 15.4375 76.875 14.875 76.6094C14.3125 76.3438 13.6094 76.2109 12.7656 76.2109C11.8281 76.2109 11.1797 76.4531 10.8203 76.9375C10.4766 77.4062 10.3047 78.3203 10.3047 79.6797V86.9922ZM39.0391 100V98.9922C40.1797 98.9922 40.9766 98.75 41.4297 98.2656C41.8828 97.7656 42.1094 96.8594 42.1094 95.5469V79.6797C42.1094 78.3516 41.8828 77.4453 41.4297 76.9609C40.9766 76.4609 40.1797 76.2109 39.0391 76.2109V75.2031C42.6953 75.3438 44.8047 75.4141 45.3672 75.4141C46.0078 75.4141 48.0859 75.3438 51.6016 75.2031V76.2109C50.6328 76.2109 49.9609 76.4609 49.5859 76.9609C49.2109 77.4453 49.0234 78.3516 49.0234 79.6797V94.6328L58.1875 79.1406C58.1406 78.0312 57.9219 77.2656 57.5312 76.8438C57.1406 76.4219 56.4922 76.2109 55.5859 76.2109V75.2031C58.9609 75.3438 60.9453 75.4141 61.5391 75.4141C62.1016 75.4141 64.3125 75.3438 68.1719 75.2031V76.2109C67.0312 76.2109 66.2344 76.4609 65.7812 76.9609C65.3281 77.4453 65.1016 78.3516 65.1016 79.6797V95.5469C65.1016 96.8594 65.3281 97.7656 65.7812 98.2656C66.2344 98.75 67.0312 98.9922 68.1719 98.9922V100C64.9219 99.875 62.8047 99.8125 61.8203 99.8125C60.8516 99.8125 58.7734 99.875 55.5859 100V98.9922C56.5547 98.9922 57.2266 98.75 57.6016 98.2656C57.9922 97.7656 58.1875 96.8594 58.1875 95.5469V80.9453L49.0469 96.4609C49.125 97.4141 49.3594 98.0781 49.75 98.4531C50.1406 98.8125 50.7578 98.9922 51.6016 98.9922V100C48.6016 99.875 46.6172 99.8125 45.6484 99.8125C44.6172 99.8125 42.4141 99.875 39.0391 100ZM71.0781 87.7188C71.0781 83.5156 72.1719 80.2656 74.3594 77.9688C76.5625 75.6562 79.4219 74.5 82.9375 74.5C85.3906 74.5 87.3984 74.9922 88.9609 75.9766C89.7891 76.4766 90.4375 77.1172 90.9062 77.8984C91.375 78.6641 91.6094 79.5156 91.6094 80.4531C91.6094 81.5938 91.25 82.5234 90.5312 83.2422C89.8281 83.9609 88.9219 84.3203 87.8125 84.3203C86.6719 84.3203 85.7656 84 85.0938 83.3594C84.4375 82.7031 84.1094 81.8359 84.1094 80.7578C84.1094 79.7891 84.4062 78.9531 85 78.25C85.6094 77.5469 86.3672 77.0703 87.2734 76.8203C87.0234 76.4922 86.6328 76.2188 86.1016 76C85.5859 75.7812 85.0156 75.6719 84.3906 75.6719C83.0938 75.6719 81.9844 76.1719 81.0625 77.1719C80.1406 78.1719 79.4531 79.5156 79 81.2031C78.5469 82.8906 78.3203 84.8359 78.3203 87.0391C78.3203 88.8203 78.5 90.3672 78.8594 91.6797C79.2188 92.9766 79.7031 93.9844 80.3125 94.7031C80.9375 95.4062 81.6094 95.9219 82.3281 96.25C83.0469 96.5625 83.8281 96.7188 84.6719 96.7188C87.2812 96.7188 89.375 95.4141 90.9531 92.8047L91.7969 93.1094C91.5 94.0625 91.0938 94.9688 90.5781 95.8281C90.0781 96.6719 89.4453 97.4688 88.6797 98.2188C87.9297 98.9688 87 99.5625 85.8906 100C84.7812 100.453 83.5703 100.68 82.2578 100.68C80.6641 100.68 79.1953 100.422 77.8516 99.9062C76.5234 99.3906 75.3438 98.6172 74.3125 97.5859C73.2969 96.5547 72.5 95.2031 71.9219 93.5312C71.3594 91.8438 71.0781 89.9062 71.0781 87.7188ZM94.375 75.2266H99.4844C99.9844 75.2266 101.109 75.2578 102.859 75.3203C104.625 75.3672 106.031 75.3906 107.078 75.3906C108.125 75.3906 109.539 75.3594 111.32 75.2969C113.117 75.2344 114.266 75.2031 114.766 75.2031H119.852C119.633 77.7344 119.523 79.9766 119.523 81.9297C119.523 83.3203 119.57 84.4062 119.664 85.1875H118.562C117.531 79.2031 115.398 76.2109 112.164 76.2109H110.57V95.0547C110.57 96.5391 110.945 97.5703 111.695 98.1484C112.445 98.7109 113.578 98.9922 115.094 98.9922V100C110.719 99.875 108.07 99.8125 107.148 99.8125C106.133 99.8125 103.469 99.875 99.1562 100V98.9922C100.719 98.9922 101.859 98.75 102.578 98.2656C103.297 97.7656 103.656 96.7891 103.656 95.3359V76.2109H101.898C100.43 76.2109 99.1641 76.8984 98.1016 78.2734C97.0547 79.6328 96.25 81.9453 95.6875 85.2109H94.5625C94.6719 84.4922 94.7266 83.4062 94.7266 81.9531C94.7266 80.1875 94.6094 77.9453 94.375 75.2266ZM122.922 87.6016C122.922 85.2891 123.203 83.2812 123.766 81.5781C124.344 79.8594 125.164 78.4922 126.227 77.4766C127.289 76.4609 128.516 75.7109 129.906 75.2266C131.312 74.7422 132.898 74.5 134.664 74.5C136.445 74.5 138.031 74.7422 139.422 75.2266C140.828 75.7109 142.062 76.4609 143.125 77.4766C144.188 78.4922 145 79.8594 145.562 81.5781C146.141 83.2812 146.43 85.2891 146.43 87.6016C146.43 89.9297 146.141 91.9453 145.562 93.6484C145 95.3516 144.188 96.7109 143.125 97.7266C142.062 98.7422 140.828 99.4922 139.422 99.9766C138.031 100.445 136.445 100.68 134.664 100.68C132.883 100.68 131.297 100.445 129.906 99.9766C128.516 99.4922 127.289 98.7422 126.227 97.7266C125.164 96.7109 124.344 95.3516 123.766 93.6484C123.203 91.9453 122.922 89.9297 122.922 87.6016ZM131.383 78.4609C130.57 80.4453 130.164 83.4922 130.164 87.6016C130.164 91.7109 130.57 94.7578 131.383 96.7422C132.195 98.7266 133.289 99.7188 134.664 99.7188C136.055 99.7188 137.156 98.7266 137.969 96.7422C138.781 94.7578 139.188 91.7109 139.188 87.6016C139.188 83.4922 138.781 80.4453 137.969 78.4609C137.156 76.4609 136.055 75.4609 134.664 75.4609C133.289 75.4609 132.195 76.4609 131.383 78.4609ZM149.195 76.2109V75.2031C150.211 75.2969 151.203 75.3438 152.172 75.3438C155.016 75.3438 157.352 75.1172 159.18 74.6641V79.1641C159.836 77.6484 160.812 76.4922 162.109 75.6953C163.406 74.8984 164.914 74.5 166.633 74.5C169.18 74.5 171.242 75.5312 172.82 77.5938C174.414 79.6562 175.211 82.6172 175.211 86.4766C175.211 91.0547 174.219 94.5703 172.234 97.0234C170.25 99.4609 167.539 100.68 164.102 100.68C162.039 100.68 160.398 100.164 159.18 99.1328V103.938C159.18 105.344 159.531 106.32 160.234 106.867C160.953 107.414 162.039 107.688 163.492 107.688V108.695C158.648 108.555 155.961 108.484 155.43 108.484C154.992 108.484 152.977 108.555 149.383 108.695V107.688C150.461 107.688 151.211 107.453 151.633 106.984C152.055 106.516 152.266 105.656 152.266 104.406V80.4297C152.266 78.9453 152.031 77.875 151.562 77.2188C151.109 76.5469 150.32 76.2109 149.195 76.2109ZM159.18 98.0781C159.914 98.9375 160.93 99.3672 162.227 99.3672C164.273 99.3672 165.742 98.3516 166.633 96.3203C167.523 94.2734 167.969 91.3047 167.969 87.4141C167.969 84.7734 167.789 82.6328 167.43 80.9922C167.086 79.3516 166.617 78.2031 166.023 77.5469C165.43 76.8906 164.695 76.5625 163.82 76.5625C162.727 76.5625 161.75 76.9375 160.891 77.6875C160.031 78.4375 159.461 79.4766 159.18 80.8047V98.0781ZM178.211 100V98.9922C179.352 98.9922 180.148 98.75 180.602 98.2656C181.055 97.7656 181.281 96.8594 181.281 95.5469V79.6797C181.281 78.3516 181.055 77.4453 180.602 76.9609C180.148 76.4609 179.352 76.2109 178.211 76.2109V75.2031C181.867 75.3438 183.977 75.4141 184.539 75.4141C185.18 75.4141 187.258 75.3438 190.773 75.2031V76.2109C189.805 76.2109 189.133 76.4609 188.758 76.9609C188.383 77.4453 188.195 78.3516 188.195 79.6797V94.6328L197.359 79.1406C197.312 78.0312 197.094 77.2656 196.703 76.8438C196.312 76.4219 195.664 76.2109 194.758 76.2109V75.2031C198.133 75.3438 200.117 75.4141 200.711 75.4141C201.273 75.4141 203.484 75.3438 207.344 75.2031V76.2109C206.203 76.2109 205.406 76.4609 204.953 76.9609C204.5 77.4453 204.273 78.3516 204.273 79.6797V95.5469C204.273 96.8594 204.5 97.7656 204.953 98.2656C205.406 98.75 206.203 98.9922 207.344 98.9922V100C204.094 99.875 201.977 99.8125 200.992 99.8125C200.023 99.8125 197.945 99.875 194.758 100V98.9922C195.727 98.9922 196.398 98.75 196.773 98.2656C197.164 97.7656 197.359 96.8594 197.359 95.5469V80.9453L188.219 96.4609C188.297 97.4141 188.531 98.0781 188.922 98.4531C189.312 98.8125 189.93 98.9922 190.773 98.9922V100C187.773 99.875 185.789 99.8125 184.82 99.8125C183.789 99.8125 181.586 99.875 178.211 100ZM208.914 76.2109V75.2031C212.57 75.3438 214.695 75.4141 215.289 75.4141C215.914 75.4141 217.984 75.3438 221.5 75.2031V76.2109C220.531 76.2109 219.852 76.4609 219.461 76.9609C219.086 77.4453 218.898 78.3516 218.898 79.6797V84.1094C218.898 84.8906 218.914 85.5156 218.945 85.9844C218.977 86.4375 219.055 86.9062 219.18 87.3906C219.32 87.8594 219.516 88.2188 219.766 88.4688C220.016 88.7031 220.359 88.8984 220.797 89.0547C221.234 89.1953 221.781 89.2656 222.438 89.2656C223.906 89.2656 225.102 88.9766 226.023 88.3984V79.6797C226.023 78.3516 225.828 77.4453 225.438 76.9609C225.062 76.4609 224.391 76.2109 223.422 76.2109V75.2031C226.797 75.3438 228.797 75.4141 229.422 75.4141C229.938 75.4141 232.133 75.3438 236.008 75.2031V76.2109C234.867 76.2109 234.07 76.4609 233.617 76.9609C233.164 77.4453 232.938 78.3516 232.938 79.6797V95.5469C232.938 96.8594 233.164 97.7656 233.617 98.2656C234.07 98.75 234.867 98.9922 236.008 98.9922V100C232.758 99.875 230.57 99.8125 229.445 99.8125C228.586 99.8125 225.938 99.875 221.5 100V98.9922C223.016 98.9922 224.148 98.7109 224.898 98.1484C225.648 97.5703 226.023 96.5391 226.023 95.0547V89.3828C225.242 89.7891 224.18 90.1406 222.836 90.4375C221.508 90.7344 220.164 90.8828 218.805 90.8828C216.352 90.8828 214.57 90.3281 213.461 89.2188C212.883 88.6562 212.492 87.9453 212.289 87.0859C212.102 86.2266 212.008 85.0859 212.008 83.6641V79.6797C212.008 78.3516 211.773 77.4453 211.305 76.9609C210.852 76.4609 210.055 76.2109 208.914 76.2109ZM238.961 87.8359C238.961 83.5234 240.031 80.2266 242.172 77.9453C244.328 75.6484 247.172 74.5 250.703 74.5C256.719 74.5 259.727 78.0547 259.727 85.1641H246.297C246.234 85.7891 246.203 86.5469 246.203 87.4375C246.203 89.0469 246.383 90.4688 246.742 91.7031C247.102 92.9219 247.586 93.8906 248.195 94.6094C248.805 95.3125 249.469 95.8438 250.188 96.2031C250.906 96.5469 251.664 96.7188 252.461 96.7188C255.102 96.7188 257.203 95.4375 258.766 92.875L259.633 93.2031C259.336 94.1562 258.914 95.0625 258.367 95.9219C257.836 96.7656 257.18 97.5547 256.398 98.2891C255.633 99.0234 254.695 99.6016 253.586 100.023C252.492 100.461 251.305 100.68 250.023 100.68C246.648 100.68 243.961 99.6016 241.961 97.4453C239.961 95.2734 238.961 92.0703 238.961 87.8359ZM246.156 84.25H253.68C253.727 81.75 253.469 79.6719 252.906 78.0156C252.359 76.3594 251.531 75.5312 250.422 75.5312C249.281 75.5312 248.328 76.2422 247.562 77.6641C246.812 79.0859 246.344 81.2812 246.156 84.25ZM263.172 87.7188C263.172 83.5156 264.266 80.2656 266.453 77.9688C268.656 75.6562 271.516 74.5 275.031 74.5C277.484 74.5 279.492 74.9922 281.055 75.9766C281.883 76.4766 282.531 77.1172 283 77.8984C283.469 78.6641 283.703 79.5156 283.703 80.4531C283.703 81.5938 283.344 82.5234 282.625 83.2422C281.922 83.9609 281.016 84.3203 279.906 84.3203C278.766 84.3203 277.859 84 277.188 83.3594C276.531 82.7031 276.203 81.8359 276.203 80.7578C276.203 79.7891 276.5 78.9531 277.094 78.25C277.703 77.5469 278.461 77.0703 279.367 76.8203C279.117 76.4922 278.727 76.2188 278.195 76C277.68 75.7812 277.109 75.6719 276.484 75.6719C275.188 75.6719 274.078 76.1719 273.156 77.1719C272.234 78.1719 271.547 79.5156 271.094 81.2031C270.641 82.8906 270.414 84.8359 270.414 87.0391C270.414 88.8203 270.594 90.3672 270.953 91.6797C271.312 92.9766 271.797 93.9844 272.406 94.7031C273.031 95.4062 273.703 95.9219 274.422 96.25C275.141 96.5625 275.922 96.7188 276.766 96.7188C279.375 96.7188 281.469 95.4141 283.047 92.8047L283.891 93.1094C283.594 94.0625 283.188 94.9688 282.672 95.8281C282.172 96.6719 281.539 97.4688 280.773 98.2188C280.023 98.9688 279.094 99.5625 277.984 100C276.875 100.453 275.664 100.68 274.352 100.68C272.758 100.68 271.289 100.422 269.945 99.9062C268.617 99.3906 267.438 98.6172 266.406 97.5859C265.391 96.5547 264.594 95.2031 264.016 93.5312C263.453 91.8438 263.172 89.9062 263.172 87.7188ZM286.398 100V98.9922C287.539 98.9922 288.336 98.75 288.789 98.2656C289.242 97.7656 289.469 96.8594 289.469 95.5469V79.6797C289.469 78.3516 289.242 77.4453 288.789 76.9609C288.336 76.4609 287.539 76.2109 286.398 76.2109V75.2031C290.195 75.3438 292.406 75.4141 293.031 75.4141C293.656 75.4141 295.727 75.3438 299.242 75.2031V76.2109C298.18 76.2109 297.438 76.4609 297.016 76.9609C296.594 77.4453 296.383 78.3516 296.383 79.6797V86.8281C297.445 86.7656 298.32 86.6094 299.008 86.3594C299.711 86.1094 300.289 85.7188 300.742 85.1875C301.195 84.6562 301.547 84.0938 301.797 83.5C302.047 82.8906 302.32 82.0547 302.617 80.9922C302.805 80.3359 302.953 79.8203 303.062 79.4453C303.172 79.0547 303.328 78.6016 303.531 78.0859C303.734 77.5547 303.922 77.1406 304.094 76.8438C304.281 76.5469 304.516 76.2266 304.797 75.8828C305.094 75.5391 305.406 75.2812 305.734 75.1094C306.078 74.9375 306.477 74.7969 306.93 74.6875C307.398 74.5625 307.914 74.5 308.477 74.5C309.992 74.5 311.125 74.8516 311.875 75.5547C312.625 76.2578 313 77.1797 313 78.3203C313 79.4453 312.664 80.3359 311.992 80.9922C311.336 81.6484 310.477 81.9766 309.414 81.9766C308.383 81.9766 307.469 81.6719 306.672 81.0625C305.891 80.4531 305.5 79.5781 305.5 78.4375C305.5 77.2969 306.062 76.4219 307.188 75.8125C306.172 75.9375 305.445 76.3594 305.008 77.0781C304.586 77.7812 304.109 79.0781 303.578 80.9688C303.484 81.3281 303.406 81.6094 303.344 81.8125C302.922 83.1719 302.484 84.2188 302.031 84.9531C301.578 85.6875 300.898 86.2578 299.992 86.6641C300.586 86.6328 301.016 86.6172 301.281 86.6172C304.609 86.6172 306.977 87.5547 308.383 89.4297C308.773 89.9297 309.117 90.5391 309.414 91.2578C309.711 91.9766 310.023 92.8516 310.352 93.8828C310.695 94.8984 310.992 95.7188 311.242 96.3438C311.617 97.25 311.992 97.8984 312.367 98.2891C312.758 98.6641 313.328 98.8984 314.078 98.9922V100C312.781 100.203 311.641 100.305 310.656 100.305C308.766 100.305 307.289 99.9375 306.227 99.2031C305.164 98.4688 304.43 97.2656 304.023 95.5938L303.883 95.125C303.805 94.7969 303.75 94.5781 303.719 94.4688C303.688 94.3594 303.625 94.1328 303.531 93.7891C303.438 93.4453 303.352 93.1875 303.273 93.0156C303.211 92.8281 303.125 92.5781 303.016 92.2656C302.906 91.9375 302.797 91.6641 302.688 91.4453C302.594 91.2266 302.484 90.9844 302.359 90.7188C302.234 90.4531 302.102 90.2109 301.961 89.9922C301.82 89.7734 301.68 89.5703 301.539 89.3828C300.617 88.2266 299.148 87.6484 297.133 87.6484C297.055 87.6484 296.93 87.6562 296.758 87.6719C296.602 87.6719 296.477 87.6719 296.383 87.6719V95.5469C296.383 96.8594 296.594 97.7656 297.016 98.2656C297.438 98.75 298.18 98.9922 299.242 98.9922V100C295.992 99.875 293.844 99.8125 292.797 99.8125C291.781 99.8125 289.648 99.875 286.398 100ZM316.047 87.6016C316.047 85.2891 316.328 83.2812 316.891 81.5781C317.469 79.8594 318.289 78.4922 319.352 77.4766C320.414 76.4609 321.641 75.7109 323.031 75.2266C324.438 74.7422 326.023 74.5 327.789 74.5C329.57 74.5 331.156 74.7422 332.547 75.2266C333.953 75.7109 335.188 76.4609 336.25 77.4766C337.312 78.4922 338.125 79.8594 338.688 81.5781C339.266 83.2812 339.555 85.2891 339.555 87.6016C339.555 89.9297 339.266 91.9453 338.688 93.6484C338.125 95.3516 337.312 96.7109 336.25 97.7266C335.188 98.7422 333.953 99.4922 332.547 99.9766C331.156 100.445 329.57 100.68 327.789 100.68C326.008 100.68 324.422 100.445 323.031 99.9766C321.641 99.4922 320.414 98.7422 319.352 97.7266C318.289 96.7109 317.469 95.3516 316.891 93.6484C316.328 91.9453 316.047 89.9297 316.047 87.6016ZM324.508 78.4609C323.695 80.4453 323.289 83.4922 323.289 87.6016C323.289 91.7109 323.695 94.7578 324.508 96.7422C325.32 98.7266 326.414 99.7188 327.789 99.7188C329.18 99.7188 330.281 98.7266 331.094 96.7422C331.906 94.7578 332.312 91.7109 332.312 87.6016C332.312 83.4922 331.906 80.4453 331.094 78.4609C330.281 76.4609 329.18 75.4609 327.789 75.4609C326.414 75.4609 325.32 76.4609 324.508 78.4609ZM342.438 100V99.0391C343.75 98.9766 344.625 98.4609 345.062 97.4922C345.516 96.5078 345.742 94.9766 345.742 92.8984V80.2422C345.742 79.0391 345.656 78.1719 345.484 77.6406C345.312 77.0938 345.008 76.7188 344.57 76.5156C344.148 76.2969 343.438 76.1641 342.438 76.1172V75.1562C343.531 75.2656 344.828 75.3203 346.328 75.3203C348.469 75.3203 350.609 75.2656 352.75 75.1562L359.289 91.5391L365.922 75.3203C366.703 75.3516 368 75.3672 369.812 75.3672C370.781 75.3672 372.742 75.3125 375.695 75.2031V76.1875C374.539 76.2188 373.766 76.4766 373.375 76.9609C373 77.4297 372.812 78.4141 372.812 79.9141V95.2891C372.812 96.7734 373 97.7578 373.375 98.2422C373.766 98.7266 374.539 98.9844 375.695 99.0156V100C373.648 99.8906 371.594 99.8359 369.531 99.8359C367.156 99.8359 364.891 99.8906 362.734 100V99.0156C364 98.9844 364.844 98.7266 365.266 98.2422C365.703 97.7578 365.922 96.7734 365.922 95.2891V77.9453L356.758 100.234H355.984L346.797 78.2266V93.1797C346.797 95.2109 347.102 96.6797 347.711 97.5859C348.32 98.4922 349.508 98.9766 351.273 99.0391V100C349.93 99.9062 348.281 99.8594 346.328 99.8594C344.672 99.8594 343.375 99.9062 342.438 100ZM389.43 100V98.9922C390.57 98.9922 391.367 98.75 391.82 98.2656C392.273 97.7656 392.5 96.8594 392.5 95.5469V79.6797C392.5 78.3516 392.273 77.4453 391.82 76.9609C391.367 76.4609 390.57 76.2109 389.43 76.2109V75.2031C393.086 75.3438 395.195 75.4141 395.758 75.4141C396.398 75.4141 398.477 75.3438 401.992 75.2031V76.2109C401.023 76.2109 400.352 76.4609 399.977 76.9609C399.602 77.4453 399.414 78.3516 399.414 79.6797V95.5469C399.414 96.8594 399.602 97.7656 399.977 98.2656C400.352 98.75 401.023 98.9922 401.992 98.9922H405.109C406.078 98.9922 406.75 98.75 407.125 98.2656C407.516 97.7656 407.711 96.8594 407.711 95.5469V79.6797C407.711 78.3516 407.516 77.4453 407.125 76.9609C406.75 76.4609 406.078 76.2109 405.109 76.2109V75.2031C408.484 75.3438 410.469 75.4141 411.062 75.4141C411.609 75.4141 413.82 75.3438 417.695 75.2031V76.2109C416.555 76.2109 415.758 76.4609 415.305 76.9609C414.852 77.4453 414.625 78.3516 414.625 79.6797V95.5469C414.625 96.875 414.891 97.7812 415.422 98.2656C415.969 98.75 416.984 98.9922 418.469 98.9922C418.25 101.086 418.141 102.953 418.141 104.594C418.141 105.844 418.188 106.836 418.281 107.57H417.18C416.695 104.68 415.922 102.672 414.859 101.547C413.812 100.438 412.07 99.8828 409.633 99.8828C408.977 99.8828 408.07 99.9062 406.914 99.9531C405.758 99.9844 404.719 100 403.797 100C402.703 100 401.344 99.9688 399.719 99.9062C398.094 99.8438 396.867 99.8125 396.039 99.8125C395.008 99.8125 392.805 99.875 389.43 100ZM420.789 87.8359C420.789 83.5234 421.859 80.2266 424 77.9453C426.156 75.6484 429 74.5 432.531 74.5C438.547 74.5 441.555 78.0547 441.555 85.1641H428.125C428.062 85.7891 428.031 86.5469 428.031 87.4375C428.031 89.0469 428.211 90.4688 428.57 91.7031C428.93 92.9219 429.414 93.8906 430.023 94.6094C430.633 95.3125 431.297 95.8438 432.016 96.2031C432.734 96.5469 433.492 96.7188 434.289 96.7188C436.93 96.7188 439.031 95.4375 440.594 92.875L441.461 93.2031C441.164 94.1562 440.742 95.0625 440.195 95.9219C439.664 96.7656 439.008 97.5547 438.227 98.2891C437.461 99.0234 436.523 99.6016 435.414 100.023C434.32 100.461 433.133 100.68 431.852 100.68C428.477 100.68 425.789 99.6016 423.789 97.4453C421.789 95.2734 420.789 92.0703 420.789 87.8359ZM427.984 84.25H435.508C435.555 81.75 435.297 79.6719 434.734 78.0156C434.188 76.3594 433.359 75.5312 432.25 75.5312C431.109 75.5312 430.156 76.2422 429.391 77.6641C428.641 79.0859 428.172 81.2812 427.984 84.25ZM444.414 100V98.9922C445.555 98.9922 446.352 98.75 446.805 98.2656C447.258 97.7656 447.484 96.8594 447.484 95.5469V79.6797C447.484 78.3516 447.258 77.4453 446.805 76.9609C446.352 76.4609 445.555 76.2109 444.414 76.2109V75.2031C448.07 75.3438 450.18 75.4141 450.742 75.4141C451.383 75.4141 453.461 75.3438 456.977 75.2031V76.2109C456.008 76.2109 455.336 76.4609 454.961 76.9609C454.586 77.4453 454.398 78.3516 454.398 79.6797V86.7344H462.695V79.6797C462.695 78.3516 462.5 77.4453 462.109 76.9609C461.734 76.4609 461.062 76.2109 460.094 76.2109V75.2031C463.469 75.3438 465.453 75.4141 466.047 75.4141C466.594 75.4141 468.805 75.3438 472.68 75.2031V76.2109C471.539 76.2109 470.742 76.4609 470.289 76.9609C469.836 77.4453 469.609 78.3516 469.609 79.6797V95.5469C469.609 96.8594 469.836 97.7656 470.289 98.2656C470.742 98.75 471.539 98.9922 472.68 98.9922V100C469.43 99.875 467.312 99.8125 466.328 99.8125C465.359 99.8125 463.281 99.875 460.094 100V98.9922C461.062 98.9922 461.734 98.75 462.109 98.2656C462.5 97.7656 462.695 96.8594 462.695 95.5469V87.6953H454.398V95.5469C454.398 96.8594 454.586 97.7656 454.961 98.2656C455.336 98.75 456.008 98.9922 456.977 98.9922V100C453.977 99.875 451.992 99.8125 451.023 99.8125C449.992 99.8125 447.789 99.875 444.414 100ZM475.094 75.2266H480.203C480.703 75.2266 481.828 75.2578 483.578 75.3203C485.344 75.3672 486.75 75.3906 487.797 75.3906C488.844 75.3906 490.258 75.3594 492.039 75.2969C493.836 75.2344 494.984 75.2031 495.484 75.2031H500.57C500.352 77.7344 500.242 79.9766 500.242 81.9297C500.242 83.3203 500.289 84.4062 500.383 85.1875H499.281C498.25 79.2031 496.117 76.2109 492.883 76.2109H491.289V95.0547C491.289 96.5391 491.664 97.5703 492.414 98.1484C493.164 98.7109 494.297 98.9922 495.812 98.9922V100C491.438 99.875 488.789 99.8125 487.867 99.8125C486.852 99.8125 484.188 99.875 479.875 100V98.9922C481.438 98.9922 482.578 98.75 483.297 98.2656C484.016 97.7656 484.375 96.7891 484.375 95.3359V76.2109H482.617C481.148 76.2109 479.883 76.8984 478.82 78.2734C477.773 79.6328 476.969 81.9453 476.406 85.2109H475.281C475.391 84.4922 475.445 83.4062 475.445 81.9531C475.445 80.1875 475.328 77.9453 475.094 75.2266ZM502.773 76.2109V75.2031C503.789 75.2969 504.781 75.3438 505.75 75.3438C508.594 75.3438 510.93 75.1172 512.758 74.6641V79.1641C513.414 77.6484 514.391 76.4922 515.688 75.6953C516.984 74.8984 518.492 74.5 520.211 74.5C522.758 74.5 524.82 75.5312 526.398 77.5938C527.992 79.6562 528.789 82.6172 528.789 86.4766C528.789 91.0547 527.797 94.5703 525.812 97.0234C523.828 99.4609 521.117 100.68 517.68 100.68C515.617 100.68 513.977 100.164 512.758 99.1328V103.938C512.758 105.344 513.109 106.32 513.812 106.867C514.531 107.414 515.617 107.688 517.07 107.688V108.695C512.227 108.555 509.539 108.484 509.008 108.484C508.57 108.484 506.555 108.555 502.961 108.695V107.688C504.039 107.688 504.789 107.453 505.211 106.984C505.633 106.516 505.844 105.656 505.844 104.406V80.4297C505.844 78.9453 505.609 77.875 505.141 77.2188C504.688 76.5469 503.898 76.2109 502.773 76.2109ZM512.758 98.0781C513.492 98.9375 514.508 99.3672 515.805 99.3672C517.852 99.3672 519.32 98.3516 520.211 96.3203C521.102 94.2734 521.547 91.3047 521.547 87.4141C521.547 84.7734 521.367 82.6328 521.008 80.9922C520.664 79.3516 520.195 78.2031 519.602 77.5469C519.008 76.8906 518.273 76.5625 517.398 76.5625C516.305 76.5625 515.328 76.9375 514.469 77.6875C513.609 78.4375 513.039 79.4766 512.758 80.8047V98.0781ZM532.398 87.8359C532.398 83.5234 533.469 80.2266 535.609 77.9453C537.766 75.6484 540.609 74.5 544.141 74.5C550.156 74.5 553.164 78.0547 553.164 85.1641H539.734C539.672 85.7891 539.641 86.5469 539.641 87.4375C539.641 89.0469 539.82 90.4688 540.18 91.7031C540.539 92.9219 541.023 93.8906 541.633 94.6094C542.242 95.3125 542.906 95.8438 543.625 96.2031C544.344 96.5469 545.102 96.7188 545.898 96.7188C548.539 96.7188 550.641 95.4375 552.203 92.875L553.07 93.2031C552.773 94.1562 552.352 95.0625 551.805 95.9219C551.273 96.7656 550.617 97.5547 549.836 98.2891C549.07 99.0234 548.133 99.6016 547.023 100.023C545.93 100.461 544.742 100.68 543.461 100.68C540.086 100.68 537.398 99.6016 535.398 97.4453C533.398 95.2734 532.398 92.0703 532.398 87.8359ZM539.594 84.25H547.117C547.164 81.75 546.906 79.6719 546.344 78.0156C545.797 76.3594 544.969 75.5312 543.859 75.5312C542.719 75.5312 541.766 76.2422 541 77.6641C540.25 79.0859 539.781 81.2812 539.594 84.25Z" fill="#D4C17F"/>
</svg>
